<svg xmlns="http://www.w3.org/2000/svg" xmlns:xlink="http://www.w3.org/1999/xlink" viewBox="0 0 430 430" width="430" height="430" preserveAspectRatio="xMidYMid meet" style="width: 100%; height: 100%; transform: translate3d(0px, 0px, 0px); content-visibility: visible;"><defs><clipPath id="__lottie_element_2920"><rect width="430" height="430" x="0" y="0"/></clipPath><clipPath id="__lottie_element_2922"><path d="M0,0 L430,0 L430,430 L0,430z"/></clipPath><filter id="__lottie_element_2928" x="-100%" y="-100%" width="300%" height="300%"><feGaussianBlur result="filter_result_0" stdDeviation="52.5 52.5" edgeMode="wrap"/></filter><g id="__lottie_element_2929"><g clip-path="url(#__lottie_element_2930)" transform="matrix(1,0,0,1,0,0)" opacity="1" style="display: block;"><g transform="matrix(1,0,0,1,294.5,272.5)" opacity="1" style="display: none;"><g opacity="1" transform="matrix(1,0,0,1,0,0)"><path stroke-linecap="round" stroke-linejoin="round" fill-opacity="0" class="secondary" stroke="rgb(8,168,138)" stroke-opacity="1" stroke-width="12" d=" M-205.1593780517578,33.5 C-205.1593780517578,33.5 -207.10406494140625,33.5 -207.10406494140625,33.5 M-205.1593780517578,33.5 C-205.1593780517578,33.5 -205.1593780517578,0 -205.1593780517578,0 C-205.1593780517578,0 -205.1593780517578,-33.5 -205.1593780517578,-33.5 C-205.1593780517578,-33.5 -207.10406494140625,-33.5 -207.10406494140625,-33.5 C-207.10406494140625,-33.5 -207.10406494140625,33.5 -207.10406494140625,33.5"/></g></g><g transform="matrix(1,0,0,1,137.5,272.5)" opacity="1" style="display: none;"><g opacity="1" transform="matrix(1,0,0,1,0,0)"><path stroke-linecap="round" stroke-linejoin="round" fill-opacity="0" class="secondary" stroke="rgb(8,168,138)" stroke-opacity="1" stroke-width="12" d=" M-53.10679244995117,33.5 C-53.10679244995117,33.5 -55.05147933959961,33.5 -55.05147933959961,33.5 M-53.10679244995117,33.5 C-53.10679244995117,33.5 -53.10679244995117,-33.5 -53.10679244995117,-33.5 C-53.10679244995117,-33.5 -55.05147933959961,-33.5 -55.05147933959961,-33.5 C-55.05147933959961,-33.5 -55.05147933959961,33.5 -55.05147933959961,33.5"/></g></g><g transform="matrix(1,0,0,1,215.5,273.5)" opacity="1" style="display: none;"><g opacity="1" transform="matrix(1,0,0,1,0,0)"><path stroke-linecap="round" stroke-linejoin="round" fill-opacity="0" class="secondary" stroke="rgb(8,168,138)" stroke-opacity="1" stroke-width="12" d=" M179.23851013183594,69.5 C179.23851013183594,69.5 179.23851013183594,2.5 179.23851013183594,2.5 M179.23851013183594,69.5 C179.23851013183594,69.5 179.23851013183594,2.5 179.23851013183594,2.5 M179.23851013183594,69.5 C179.23851013183594,69.5 179.23851013183594,2.5 179.23851013183594,2.5 M179.23851013183594,69.5 C179.23851013183594,69.5 179.23851013183594,2.5 179.23851013183594,2.5 M179.23851013183594,69.5 C179.23851013183594,69.5 179.23851013183594,2.5 179.23851013183594,2.5 M179.23851013183594,69.5 C179.23851013183594,69.5 179.23851013183594,2.5 179.23851013183594,2.5 M179.3539581298828,69.5 C179.3539581298828,69.5 159.03482055664062,69.5 159.03482055664062,69.5 M159.4966278076172,2.5 C159.4966278076172,2.5 159.4966278076172,-59.729209899902344 159.4966278076172,-59.729209899902344 C159.4966278076172,-59.729209899902344 159.4966278076172,-59.729209899902344 159.4966278076172,-59.729209899902344 C159.4966278076172,-59.729209899902344 159.4966278076172,2.5 159.4966278076172,2.5 M179.3539581298828,69.5 C179.3539581298828,69.5 179.3539581298828,2.5 179.3539581298828,2.5 C179.3539581298828,2.5 159.03482055664062,2.5 159.03482055664062,2.5 C159.03482055664062,2.5 159.03482055664062,69.5 159.03482055664062,69.5"/></g></g><g transform="matrix(5.275599956512451,0,0,5.275599956512451,583.4199829101562,190.02000427246094)" opacity="1" style="display: none;"><g opacity="1" transform="matrix(1,0,0,1,0,0)"><path stroke-linecap="round" stroke-linejoin="round" fill-opacity="0" class="primary" stroke="rgb(18,19,49)" stroke-opacity="1" stroke-width="2.5" d=" M-95.00390625,35.91709899902344 C-95.00390625,35.91709899902344 -95.00390625,-0.34839537739753723 -95.00390625,-0.34839537739753723"/></g></g><g transform="matrix(5.275599956512451,0,0,5.275599956512451,325.0899963378906,190.02000427246094)" opacity="1" style="display: none;"><g opacity="1" transform="matrix(1,0,0,1,0,0)"><path stroke-linecap="round" stroke-linejoin="round" fill-opacity="0" class="primary" stroke="rgb(18,19,49)" stroke-opacity="1" stroke-width="2.45" d=" M-19.368722915649414,-25.29846954345703 C-19.368722915649414,-25.29846954345703 10.962108612060547,3.2769758701324463 10.962108612060547,3.2769758701324463"/></g><g opacity="1" transform="matrix(1,0,0,1,0,0)"><path stroke-linecap="round" stroke-linejoin="round" fill-opacity="0" class="primary" stroke="rgb(18,19,49)" stroke-opacity="1" stroke-width="2.45" d=" M-44.28158187866211,35.91171646118164 C-44.28158187866211,35.91171646118164 5.320230484008789,35.91160202026367 5.320230484008789,35.91160202026367 C5.320230484008789,35.91160202026367 5.312797546386719,-1.7856847047805786 5.312797546386719,-1.7856847047805786 C5.312797546386719,-1.7856847047805786 5.312797546386719,-1.9104524850845337 5.312797546386719,-1.9104524850845337"/></g></g><g transform="matrix(1,0,0,1,215.5,273.5)" opacity="1" style="display: none;"><g opacity="1" transform="matrix(1,0,0,1,0,0)"><path stroke-linecap="round" stroke-linejoin="round" fill-opacity="0" class="secondary" stroke="rgb(8,168,138)" stroke-opacity="1" stroke-width="12" d=" M-47.75028610229492,69.5 C-47.75028610229492,69.5 -47.75028610229492,2.5 -47.75028610229492,2.5 M-27.012008666992188,69.5 C-27.012008666992188,69.5 -27.012008666992188,2.5 -27.012008666992188,2.5 M-5.284090042114258,69.5 C-5.284090042114258,69.5 -5.284090042114258,2.5 -5.284090042114258,2.5 M17.431753158569336,69.5 C17.431753158569336,69.5 17.431753158569336,2.5 17.431753158569336,2.5 M39.15990447998047,69.5 C39.15990447998047,69.5 39.15990447998047,2.5 39.15990447998047,2.5 M60.93861770629883,69.5 C60.93861770629883,69.5 60.93861770629883,2.5 60.93861770629883,2.5 M81.65059661865234,69.5 C81.65059661865234,69.5 -69.48905944824219,69.5 -69.48905944824219,69.5 M45.100486755371094,2.5 C45.100486755371094,2.5 45.100486755371094,-69.20974731445312 45.100486755371094,-69.20974731445312 C45.100486755371094,-69.20974731445312 -36.461402893066406,-69.20974731445312 -36.461402893066406,-69.20974731445312 C-36.461402893066406,-69.20974731445312 -36.461402893066406,2.5 -36.461402893066406,2.5 M81.65059661865234,69.5 C81.65059661865234,69.5 81.65059661865234,2.5 81.65059661865234,2.5 C81.65059661865234,2.5 -69.48905944824219,2.5 -69.48905944824219,2.5 C-69.48905944824219,2.5 -69.48905944824219,69.5 -69.48905944824219,69.5"/></g></g><g transform="matrix(5.275599956512451,0,0,5.275599956512451,583.4199829101562,190.02000427246094)" opacity="1" style="display: none;"><g opacity="1" transform="matrix(1,0,0,1,0,0)"><path stroke-linecap="round" stroke-linejoin="round" fill-opacity="0" class="primary" stroke="rgb(18,19,49)" stroke-opacity="1" stroke-width="2.5" d=" M-94.99107360839844,35.93751525878906 C-94.99107360839844,35.93751525878906 -93.31952667236328,35.84034729003906 -93.31952667236328,35.84034729003906 C-93.31952667236328,35.84034729003906 -93.31952667236328,-1.3691675662994385 -93.31952667236328,-1.3691675662994385"/></g></g><g transform="matrix(5.275599956512451,0,0,5.275599956512451,583.4199829101562,190.02000427246094)" opacity="1" style="display: none;"><g opacity="1" transform="matrix(1,0,0,1,0,0)"><path stroke-linecap="round" stroke-linejoin="round" fill-opacity="0" class="primary" stroke="rgb(18,19,49)" stroke-opacity="1" stroke-width="2.5" d=" M-78.85511779785156,-17.6707763671875 C-78.85511779785156,-17.6707763671875 -70.42982482910156,-25.24083709716797 -70.42982482910156,-25.24083709716797 M-101.10610961914062,3.2313036918640137 C-101.10610961914062,3.2313036918640137 -88.2095718383789,-8.931495666503906 -88.2095718383789,-8.931495666503906"/></g></g><g transform="matrix(5.275599956512451,0,0,5.275599956512451,325.0899963378906,190.02000427246094)" opacity="1" style="display: none;"><g opacity="0" transform="matrix(1,0,0,1,0,0)"><path stroke-linecap="round" stroke-linejoin="round" fill-opacity="0" class="secondary" stroke="rgb(8,168,138)" stroke-opacity="1" stroke-width="2.45" d=" M-27.183000564575195,-14.454999923706055 C-27.183000564575195,-14.454999923706055 -27.183000564575195,-18.768999099731445 -27.183000564575195,-18.768999099731445 C-27.183000564575195,-18.768999099731445 -27.25200080871582,-18.768999099731445 -27.25200080871582,-18.768999099731445 C-27.25200080871582,-18.768999099731445 -27.25200080871582,-8.24899959564209 -27.25200080871582,-8.24899959564209"/></g><g opacity="1" transform="matrix(1,0,0,1,0,0)"><path stroke-linecap="round" stroke-linejoin="round" fill-opacity="0" class="secondary" stroke="rgb(8,168,138)" stroke-opacity="1" stroke-width="2.45" d="M0 0"/></g><g opacity="0" transform="matrix(1,0,0,1,0,0)"><path stroke-linecap="round" stroke-linejoin="round" fill-opacity="0" class="secondary" stroke="rgb(8,168,138)" stroke-opacity="1" stroke-width="2.45" d=" M-38.78300094604492,-6.558000087738037 C-38.78300094604492,-6.558000087738037 -38.80500030517578,-20.690000534057617 -38.80500030517578,-20.690000534057617 C-38.80500030517578,-20.690000534057617 -38.68600082397461,-20.634000778198242 -38.68600082397461,-20.634000778198242 C-38.68600082397461,-20.634000778198242 -38.65599822998047,-6.461999893188477 -38.65599822998047,-6.461999893188477"/></g></g><g transform="matrix(5.275599956512451,0,0,5.275599956512451,583.4199829101562,190.02000427246094)" opacity="1" style="display: none;"><g opacity="1" transform="matrix(1,0,0,1,0,0)"><path stroke-linecap="round" stroke-linejoin="round" fill-opacity="0" class="primary" stroke="rgb(18,19,49)" stroke-opacity="1" stroke-width="2.5" d=" M-80.8270034790039,-13.654000282287598 C-89.25800323486328,-5.802000045776367 -98.8489990234375,3.13100004196167 -98.8489990234375,3.13100004196167 C-98.84851837158203,3.130612373352051 -100.77824401855469,3.1410164833068848 -100.77824401855469,3.1410164833068848 M-70.1963119506836,-25.357942581176758 C-70.1963119506836,-25.357942581176758 -68.31896209716797,-25.303329467773438 -68.31896209716797,-25.303329467773438 C-68.31900024414062,-25.30299949645996 -74.21600341796875,-19.81100082397461 -80.8270034790039,-13.654000282287598"/></g></g><g transform="matrix(5.275599956512451,0,0,5.275599956512451,325.0899963378906,190.02000427246094)" opacity="1" style="display: none;"><g opacity="1" transform="matrix(1,0,0,1,0,0)"><path stroke-linecap="round" stroke-linejoin="round" fill-opacity="0" class="secondary" stroke="rgb(8,168,138)" stroke-opacity="1" stroke-width="2.45" d=" M-26.381511688232422,-14.459505081176758 C-26.381511688232422,-14.459505081176758 -26.381511688232422,-18.882665634155273 -26.381511688232422,-18.882665634155273 C-26.381511688232422,-18.882665634155273 -25.941198348999023,-18.882665634155273 -25.941198348999023,-18.882665634155273 C-25.941198348999023,-18.882665634155273 -25.941198348999023,-8.239989280700684 -25.941198348999023,-8.239989280700684"/></g><g opacity="0" transform="matrix(1,0,0,1,0,0)"><path stroke-linecap="round" stroke-linejoin="round" fill-opacity="0" class="secondary" stroke="rgb(8,168,138)" stroke-opacity="1" stroke-width="2.45" d=" M-14.814000129699707,-14.5 C-14.814000129699707,-14.5 -14.814000129699707,-18.815000534057617 -14.814000129699707,-18.815000534057617 C-14.814000129699707,-18.815000534057617 -14.883000373840332,-18.815000534057617 -14.883000373840332,-18.815000534057617 C-14.883000373840332,-18.815000534057617 -14.883000373840332,-8.295000076293945 -14.883000373840332,-8.295000076293945"/></g><g opacity="1" transform="matrix(1,0,0,1,0,0)"><path stroke-linecap="round" stroke-linejoin="round" fill-opacity="0" class="secondary" stroke="rgb(8,168,138)" stroke-opacity="1" stroke-width="2.45" d=" M-26.043254852294922,-8.232999801635742 C-26.043254852294922,-8.232999801635742 -26.0090274810791,-18.88298225402832 -26.0090274810791,-18.88298225402832 C-26.0090274810791,-18.88298225402832 -13.824983596801758,-18.834352493286133 -13.824983596801758,-18.834352493286133 C-13.824983596801758,-18.834352493286133 -13.847210884094238,-8.145369529724121 -13.847210884094238,-8.145369529724121"/></g></g><g transform="matrix(5.275599956512451,0,0,5.275599956512451,325.0899963378906,190.02000427246094)" opacity="1" style="display: none;"><g opacity="1" transform="matrix(1,0,0,1,0,0)"><path stroke-linecap="round" stroke-linejoin="round" fill-opacity="0" class="secondary" stroke="rgb(8,168,138)" stroke-opacity="1" stroke-width="2.45" d=" M-9.927000045776367,-16.43600082397461 C-9.927000045776367,-16.43600082397461 -9.927000045776367,-22.22800064086914 -9.927000045776367,-22.22800064086914 C-9.926902770996094,-22.228397369384766 -0.9919028878211975,-22.228397369384766 -0.9919028878211975,-22.228397369384766 C-0.9919999837875366,-22.22800064086914 -0.9919999837875366,-8.32699966430664 -0.9919999837875366,-8.107999801635742"/></g></g><g transform="matrix(5.275599956512451,0,0,5.275599956512451,325.0899963378906,190.02000427246094)" opacity="1" style="display: none;"><g opacity="1" transform="matrix(1,0,0,1,0,0)"><path stroke-linecap="round" stroke-linejoin="round" fill-opacity="0" class="secondary" stroke="rgb(8,168,138)" stroke-opacity="1" stroke-width="2.45" d=" M-50.045352935791016,35.698429107666016 C-50.045352935791016,35.698429107666016 -50.045352935791016,9.715999603271484 -50.045352935791016,9.715999603271484 C-50.045352935791016,9.715999603271484 -49.252159118652344,9.715999603271484 -49.252159118652344,9.715999603271484 C-49.252159118652344,9.715999603271484 -49.252159118652344,35.698429107666016 -49.252159118652344,35.698429107666016"/></g><g opacity="1" transform="matrix(1,0,0,1,0,0)"><path stroke-linecap="round" stroke-linejoin="round" fill-opacity="0" class="primary" stroke="rgb(18,19,49)" stroke-opacity="1" stroke-width="2.45" d=" M-56.363380432128906,3.2571418285369873 C-56.363380432128906,3.2571418285369873 -45.47092056274414,-25.543132781982422 -45.47092056274414,-25.543132781982422 C-45.47092056274414,-25.543132781982422 -53.258522033691406,3.2571418285369873 -53.258522033691406,3.2571418285369873"/></g><g opacity="1" transform="matrix(1,0,0,1,0,0)"><path stroke-linecap="round" stroke-linejoin="round" fill-opacity="0" class="primary" stroke="rgb(18,19,49)" stroke-opacity="1" stroke-width="2.45" d=" M-50.88771438598633,3.5399999618530273 C-50.88771438598633,3.5399999618530273 -50.88771438598633,3.634999990463257 -50.88771438598633,3.634999990463257 C-50.88771438598633,3.634999990463257 -50.91851806640625,35.6979866027832 -50.91851806640625,35.6979866027832 C-50.91851806640625,35.6979866027832 -48.395538330078125,35.6979866027832 -48.395538330078125,35.6979866027832 C-48.395538330078125,35.6979866027832 -48.40535354614258,3.62015700340271 -48.40535354614258,3.62015700340271"/></g></g><g transform="matrix(5.275599956512451,0,0,5.275599956512451,325.0899963378906,190.02000427246094)" opacity="1" style="display: none;"><g opacity="1" transform="matrix(1,0,0,1,0,0)"><path stroke-linecap="round" stroke-linejoin="round" fill-opacity="0" class="primary" stroke="rgb(18,19,49)" stroke-opacity="1" stroke-width="2.45" d=" M-50.571407318115234,3.5388107299804688 C-50.571407318115234,3.5388107299804688 -50.571407318115234,3.6338107585906982 -50.571407318115234,3.6338107585906982 C-50.571407318115234,3.6338107585906982 -50.57334518432617,35.680999755859375 -50.57334518432617,35.680999755859375"/></g></g><g transform="matrix(5.275599956512451,0,0,5.275599956512451,325.0899963378906,190.02000427246094)" opacity="1" style="display: none;"><g opacity="1" transform="matrix(1,0,0,1,0,0)"><path stroke-linecap="round" stroke-linejoin="round" fill-opacity="0" class="secondary" stroke="rgb(8,168,138)" stroke-opacity="1" stroke-width="2.45" d=" M-28.23885154724121,35.91697692871094 C-28.23885154724121,35.91697692871094 -28.23885154724121,9.715977668762207 -28.23885154724121,9.715977668762207 C-28.23885154724121,9.715977668762207 -12.385595321655273,9.715977668762207 -12.385595321655273,9.715977668762207 C-12.385595321655273,9.715977668762207 -12.385595321655273,35.91697692871094 -12.385595321655273,35.91697692871094"/></g></g><g transform="matrix(1,0,0,1,215.5,273.5)" opacity="1" style="display: none;"><g opacity="1" transform="matrix(1,0,0,1,0,0)"><path stroke-linecap="round" stroke-linejoin="round" fill-opacity="0" class="secondary" stroke="rgb(8,168,138)" stroke-opacity="1" stroke-width="12" d=" M-167.43800354003906,69.5 C-167.43800354003906,69.5 -167.43800354003906,2.5 -167.43800354003906,2.5 M-167.43800354003906,69.5 C-167.43800354003906,69.5 -167.43800354003906,2.5 -167.43800354003906,2.5 M-167.43800354003906,69.5 C-167.43800354003906,69.5 -167.43800354003906,2.5 -167.43800354003906,2.5 M-167.43800354003906,69.5 C-167.43800354003906,69.5 -167.43800354003906,2.5 -167.43800354003906,2.5 M-167.43800354003906,69.5 C-167.43800354003906,69.5 -167.43800354003906,2.5 -167.43800354003906,2.5 M-167.43800354003906,69.5 C-167.43800354003906,69.5 -167.43800354003906,2.5 -167.43800354003906,2.5 M-167.6820068359375,69.5 C-167.6820068359375,69.5 -167.43800354003906,69.5 -167.43800354003906,69.5 M-167.68800354003906,2.5 C-167.68800354003906,2.5 -167.68800354003906,-62.75 -167.68800354003906,-62.75 C-167.68800354003906,-62.75 -167.68499755859375,-62.75 -167.68499755859375,-62.75 C-167.68499755859375,-62.75 -167.68499755859375,2.5 -167.68499755859375,2.5 M-167.6820068359375,69.5 C-167.6820068359375,69.5 -167.6820068359375,2.5 -167.6820068359375,2.5 C-167.6820068359375,2.5 -167.43800354003906,2.5 -167.43800354003906,2.5 C-167.43800354003906,2.5 -167.43800354003906,69.5 -167.43800354003906,69.5"/></g></g><g transform="matrix(1,0,0,1,294.5,272.5)" opacity="1" style="display: none;"><g opacity="1" transform="matrix(1,0,0,1,0,0)"><path stroke-linecap="round" stroke-linejoin="round" fill-opacity="0" class="secondary" stroke="rgb(8,168,138)" stroke-opacity="1" stroke-width="12" d=" M-210.4853973388672,33.5 C-210.4853973388672,33.5 -210.49070739746094,33.5 -210.49070739746094,33.5 M-210.4853973388672,33.5 C-210.4853973388672,33.5 -210.4853973388672,0 -210.4853973388672,0 C-210.4853973388672,0 -210.4853973388672,-33.5 -210.4853973388672,-33.5 C-210.4853973388672,-33.5 -210.49070739746094,-33.5 -210.49070739746094,-33.5 C-210.49070739746094,-33.5 -210.49070739746094,33.5 -210.49070739746094,33.5"/></g></g><g transform="matrix(1,0,0,1,137.5,272.5)" opacity="1" style="display: none;"><g opacity="1" transform="matrix(1,0,0,1,0,0)"><path stroke-linecap="round" stroke-linejoin="round" fill-opacity="0" class="secondary" stroke="rgb(8,168,138)" stroke-opacity="1" stroke-width="12" d=" M-54.49618911743164,33.5 C-54.49618911743164,33.5 -54.50150680541992,33.5 -54.50150680541992,33.5 M-54.49618911743164,33.5 C-54.49618911743164,33.5 -54.49618911743164,-33.5 -54.49618911743164,-33.5 C-54.49618911743164,-33.5 -54.50150680541992,-33.5 -54.50150680541992,-33.5 C-54.50150680541992,-33.5 -54.50150680541992,33.5 -54.50150680541992,33.5"/></g></g><g transform="matrix(5.275599956512451,0,0,5.275599956512451,583.4199829101562,190.02000427246094)" opacity="1" style="display: none;"><g opacity="1" transform="matrix(1,0,0,1,0,0)"><path stroke-linecap="round" stroke-linejoin="round" fill-opacity="0" class="primary" stroke="rgb(18,19,49)" stroke-opacity="1" stroke-width="2.5" d=" M-94.60908508300781,35.91999053955078 C-94.60908508300781,35.91999053955078 -94.60908508300781,-1.8269444704055786 -94.60908508300781,-1.8269444704055786"/></g></g><g transform="matrix(5.275599956512451,0,0,5.275599956512451,325.0899963378906,190.02000427246094)" opacity="1" style="display: none;"><g opacity="1" transform="matrix(1,0,0,1,0,0)"><path stroke-linecap="round" stroke-linejoin="round" fill-opacity="0" class="primary" stroke="rgb(18,19,49)" stroke-opacity="1" stroke-width="2.45" d=" M-20.31241226196289,-25.29401206970215 C-20.31241226196289,-25.29401206970215 10.51223373413086,3.2839808464050293 10.51223373413086,3.2839808464050293"/></g><g opacity="1" transform="matrix(1,0,0,1,0,0)"><path stroke-linecap="round" stroke-linejoin="round" fill-opacity="0" class="primary" stroke="rgb(18,19,49)" stroke-opacity="1" stroke-width="2.45" d=" M-45.70808792114258,35.91698455810547 C-45.70808792114258,35.91698455810547 4.76053524017334,35.91698455810547 4.76053524017334,35.91698455810547 C4.76053524017334,35.91698455810547 4.75153923034668,-1.8677748441696167 4.75153923034668,-1.8677748441696167 C4.75153923034668,-1.8677748441696167 4.75153923034668,-1.992774248123169 4.75153923034668,-1.992774248123169"/></g></g><g transform="matrix(5.275599956512451,0,0,5.275599956512451,583.4199829101562,190.02000427246094)" opacity="1" style="display: none;"><g opacity="1" transform="matrix(1,0,0,1,0,0)"><path stroke-linecap="round" stroke-linejoin="round" fill-opacity="0" class="primary" stroke="rgb(18,19,49)" stroke-opacity="1" stroke-width="2.5" d=" M-94.70578002929688,35.94099044799805 C-94.70578002929688,35.94099044799805 -94.74608612060547,35.84000015258789 -94.74608612060547,35.84000015258789 C-94.74608612060547,35.84000015258789 -94.74608612060547,-1.3420742750167847 -94.74608612060547,-1.3420742750167847"/></g></g><g transform="matrix(5.275599956512451,0,0,5.275599956512451,583.4199829101562,190.02000427246094)" opacity="1" style="display: none;"><g opacity="1" transform="matrix(1,0,0,1,0,0)"><path stroke-linecap="round" stroke-linejoin="round" fill-opacity="0" class="primary" stroke="rgb(18,19,49)" stroke-opacity="1" stroke-width="2.5" d=" M-69.21968078613281,-25.357999801635742 C-69.21968078613281,-25.357999801635742 -69.25443267822266,-25.305992126464844 -69.25443267822266,-25.305992126464844 C-69.25443267822266,-25.305992126464844 -100.36284637451172,3.128007173538208 -100.36284637451172,3.128007173538208 C-100.36284637451172,3.128007173538208 -100.36912536621094,3.129032850265503 -100.36912536621094,3.129032850265503"/></g></g><g transform="matrix(5.275599956512451,0,0,5.275599956512451,583.4199829101562,190.02000427246094)" opacity="1" style="display: none;"><g opacity="1" transform="matrix(1,0,0,1,0,0)"><path stroke-linecap="round" stroke-linejoin="round" fill-opacity="0" class="primary" stroke="rgb(18,19,49)" stroke-opacity="1" stroke-width="2.5" d=" M-100.72205352783203,3.2260143756866455 C-100.72205352783203,3.2260143756866455 -69.35270690917969,-25.328006744384766 -69.35270690917969,-25.328006744384766"/></g></g><g transform="matrix(5.275599956512451,0,0,5.275599956512451,325.0899963378906,190.02000427246094)" opacity="1" style="display: none;"><g opacity="1" transform="matrix(1,0,0,1,0,0)"><path stroke-linecap="round" stroke-linejoin="round" fill-opacity="0" class="primary" stroke="rgb(18,19,49)" stroke-opacity="1" stroke-width="2.45" d=" M-50.57334518432617,35.680999755859375 C-50.57334518432617,35.680999755859375 -50.682830810546875,35.680999755859375 -50.682830810546875,35.680999755859375 C-50.682830810546875,35.680999755859375 -50.68089294433594,3.5965535640716553 -50.68089294433594,3.5965535640716553"/></g></g><g transform="matrix(5.275599956512451,0,0,5.275599956512451,325.0899963378906,190.02000427246094)" opacity="1" style="display: none;"><g opacity="1" transform="matrix(1,0,0,1,0,0)"><path stroke-linecap="round" stroke-linejoin="round" fill-opacity="0" class="primary" stroke="rgb(18,19,49)" stroke-opacity="1" stroke-width="2.45" d=" M-56.144203186035156,3.2561893463134766 C-56.144203186035156,3.2561893463134766 -45.78279495239258,-25.554386138916016 -45.78279495239258,-25.554386138916016 C-45.78279495239258,-25.554386138916016 -56.279232025146484,3.2561893463134766 -56.279232025146484,3.2561893463134766"/></g></g><g transform="matrix(5.275599956512451,0,0,5.275599956512451,325.0899963378906,190.02000427246094)" opacity="1" style="display: block;"><g opacity="1" transform="matrix(1,0,0,1,0,0)"><path stroke-linecap="round" stroke-linejoin="round" fill-opacity="0" class="secondary" stroke="rgb(8,168,138)" stroke-opacity="1" stroke-width="2.45" d=" M-9.925999641418457,-16.437000274658203 C-9.925999641418457,-16.437000274658203 -9.925999641418457,-22.229000091552734 -9.925999641418457,-22.229000091552734 C-9.925999641418457,-22.229000091552734 -0.9909999966621399,-22.229000091552734 -0.9909999966621399,-22.229000091552734 C-0.9909999966621399,-22.229000091552734 -0.9909999966621399,-8.105999946594238 -0.9909999966621399,-8.105999946594238 C-0.9909999966621399,-8.105999946594238 -1.055999994277954,-8.166999816894531 -1.055999994277954,-8.166999816894531"/></g><g opacity="1" transform="matrix(1,0,0,1,0,0)"><path stroke-linecap="round" stroke-linejoin="round" fill-opacity="0" class="secondary" stroke="rgb(8,168,138)" stroke-opacity="1" stroke-width="2.45" d=" M-28.242000579833984,35.91699981689453 C-28.242000579833984,35.91699981689453 -28.242000579833984,9.715999603271484 -28.242000579833984,9.715999603271484 C-28.242000579833984,9.715999603271484 -12.387999534606934,9.715999603271484 -12.387999534606934,9.715999603271484 C-12.387999534606934,9.715999603271484 -12.387999534606934,35.91699981689453 -12.387999534606934,35.91699981689453"/></g><g opacity="1" transform="matrix(1,0,0,1,0,0)"><path stroke-linecap="round" stroke-linejoin="round" fill-opacity="0" class="secondary" stroke="rgb(8,168,138)" stroke-opacity="0" stroke-width="2.45" d=" M-51.58100128173828,3.2839999198913574 C-51.58100128173828,3.2839999198913574 -20.315000534057617,-25.29400062561035 -20.315000534057617,-25.29400062561035 M-20.315000534057617,-25.29400062561035 C-20.315000534057617,-25.29400062561035 10.51099967956543,3.2839999198913574 10.51099967956543,3.2839999198913574 M-45.71200180053711,-1.2940000295639038 C-45.71200180053711,-1.2940000295639038 -45.71200180053711,-1.184000015258789 -45.71200180053711,-1.184000015258789 C-45.71200180053711,-1.184000015258789 -45.71200180053711,35.91699981689453 -45.71200180053711,35.91699981689453 C-45.71200180053711,35.91699981689453 4.758999824523926,35.91699981689453 4.758999824523926,35.91699981689453 C4.758999824523926,35.91699981689453 4.75,-1.9930000305175781 4.75,-1.9930000305175781"/><path stroke-linecap="round" stroke-linejoin="round" fill-opacity="0" class="primary" stroke="rgb(18,19,49)" stroke-opacity="1" stroke-width="2.45" d=" M-51.58100128173828,3.2839999198913574 C-51.58100128173828,3.2839999198913574 -20.315000534057617,-25.29400062561035 -20.315000534057617,-25.29400062561035 M-20.315000534057617,-25.29400062561035 C-20.315000534057617,-25.29400062561035 10.51099967956543,3.2839999198913574 10.51099967956543,3.2839999198913574 M-45.71200180053711,-1.2940000295639038 C-45.71200180053711,-1.2940000295639038 -45.71200180053711,-1.184000015258789 -45.71200180053711,-1.184000015258789 C-45.71200180053711,-1.184000015258789 -45.71200180053711,35.91699981689453 -45.71200180053711,35.91699981689453 C-45.71200180053711,35.91699981689453 4.758999824523926,35.91699981689453 4.758999824523926,35.91699981689453 C4.758999824523926,35.91699981689453 4.75,-1.9930000305175781 4.75,-1.9930000305175781"/></g></g><g transform="matrix(5.275599956512451,0,0,5.275599956512451,325.0899963378906,190.02000427246094)" opacity="1" style="display: none;"><g opacity="1" transform="matrix(1,0,0,1,0,0)"><path stroke-linecap="round" stroke-linejoin="round" fill-opacity="0" class="primary" stroke="rgb(18,19,49)" stroke-opacity="1" stroke-width="2.45" d=" M-51.58100128173828,3.2839999198913574 C-51.58100128173828,3.2839999198913574 -20.315000534057617,-25.29400062561035 -20.315000534057617,-25.29400062561035 M-20.315000534057617,-25.29400062561035 C-20.315000534057617,-25.29400062561035 10.51099967956543,3.2839999198913574 10.51099967956543,3.2839999198913574 M-45.71200180053711,-1.2940000295639038 C-45.71200180053711,-1.2940000295639038 -45.71200180053711,-1.184000015258789 -45.71200180053711,-1.184000015258789 C-45.71200180053711,-1.184000015258789 -45.71200180053711,35.91699981689453 -45.71200180053711,35.91699981689453 C-45.71200180053711,35.91699981689453 4.758999824523926,35.91699981689453 4.758999824523926,35.91699981689453 C4.758999824523926,35.91699981689453 4.75,-1.9930000305175781 4.75,-1.9930000305175781"/></g></g></g></g><clipPath id="__lottie_element_2930"><path d="M0,0 L430,0 L430,430 L0,430z"/></clipPath><mask id="__lottie_element_2929_1" mask-type="alpha"><use xmlns:ns1="http://www.w3.org/1999/xlink" ns1:href="#__lottie_element_2929"/></mask><clipPath id="__lottie_element_3214"><path d="M0,0 L430,0 L430,430 L0,430z"/></clipPath><filter id="__lottie_element_3219" x="-100%" y="-100%" width="300%" height="300%"><feGaussianBlur result="filter_result_0" stdDeviation="52.5 52.5" edgeMode="wrap"/></filter><g id="__lottie_element_3220"><g clip-path="url(#__lottie_element_3221)" transform="matrix(1,0,0,1,0,0)" opacity="1" style="display: block;"><g transform="matrix(1,0,0,1,215,215)" opacity="0.2" style="display: none;"><g opacity="1" transform="matrix(1,0,0,1,0,0)"><path stroke-linecap="round" stroke-linejoin="round" fill-opacity="0" class="septenary" stroke="rgb(100,110,120)" stroke-opacity="1" stroke-width="12" d="M0 0"/></g></g><g transform="matrix(1,0,0,1,215,215)" opacity="0.2" style="display: none;"><g opacity="1" transform="matrix(1,0,0,1,0,0)"><path stroke-linecap="round" stroke-linejoin="round" fill-opacity="0" class="septenary" stroke="rgb(100,110,120)" stroke-opacity="1" stroke-width="12" d="M0 0"/></g></g><g transform="matrix(1,0,0,1,215,215)" opacity="0.2" style="display: none;"><g opacity="1" transform="matrix(1,0,0,1,0,0)"><path stroke-linecap="round" stroke-linejoin="round" fill-opacity="0" class="septenary" stroke="rgb(100,110,120)" stroke-opacity="1" stroke-width="12" d=" M181.9770050048828,-177.75599670410156 C181.97900390625,-177.74600219726562 181.98199462890625,-177.73699951171875 181.98399353027344,-177.7270050048828"/></g></g><g transform="matrix(1,0,0,1,215,215)" opacity="0.2" style="display: block;"><g opacity="1" transform="matrix(1,0,0,1,0,0)"><path stroke-linecap="round" stroke-linejoin="round" fill-opacity="0" class="septenary" stroke="rgb(100,110,120)" stroke-opacity="1" stroke-width="12" d=" M81.5510025024414,-240.92300415039062 C85.89399719238281,-255.84800720214844 93.25599670410156,-269.1159973144531 103.9469985961914,-278.0459899902344"/></g></g><g transform="matrix(1,0,0,1,215,215)" opacity="0.2" style="display: block;"><g opacity="1" transform="matrix(1,0,0,1,0,0)"><path stroke-linecap="round" stroke-linejoin="round" fill-opacity="0" class="septenary" stroke="rgb(100,110,120)" stroke-opacity="1" stroke-width="12" d=" M-1.5089999437332153,-200.68800354003906 C-16.95599937438965,-199.79100036621094 -34.63600158691406,-195.12899780273438 -54,-186 C-69.34700012207031,-178.76499938964844 -83.24199676513672,-173.44000244140625 -95.02899932861328,-170.5570068359375"/></g></g><g transform="matrix(1,0,0,1,215,215)" opacity="0.2" style="display: block;"><g opacity="1" transform="matrix(1,0,0,1,0,0)"><path stroke-linecap="round" stroke-linejoin="round" fill-opacity="0" class="septenary" stroke="rgb(100,110,120)" stroke-opacity="1" stroke-width="12" d=" M98.03299713134766,-159.10000610351562 C104.83799743652344,-195.56900024414062 131.3040008544922,-204.66799926757812 170.25599670410156,-205.802001953125 C194.24200439453125,-206.5 208.39100646972656,-191.88699340820312 205.01400756835938,-170.1269989013672 C203.54800415039062,-160.68299865722656 197.89300537109375,-154.70899963378906 190.70399475097656,-151.69900512695312"/></g></g><g transform="matrix(5.275599956512451,0,0,5.275599956512451,583.4199829101562,190.02000427246094)" opacity="1" style="display: block;"><g opacity="1" transform="matrix(1,0,0,1,0,0)"><path stroke-linecap="round" stroke-linejoin="round" fill-opacity="0" class="secondary" stroke="rgb(18,19,49)" stroke-opacity="1" stroke-width="2.45" d=" M-51.07500076293945,-8.583999633789062 C-44.33100128173828,-2.3310000896453857 -38.27299880981445,3.2850000858306885 -38.27299880981445,3.2850000858306885 C-38.27299880981445,3.2850000858306885 -38.25,3.2850000858306885 -38.25,3.2850000858306885 M-68.86900329589844,-25.347999572753906 C-68.86900329589844,-25.347999572753906 -69.0989990234375,-25.292999267578125 -69.0989990234375,-25.292999267578125 C-69.0989990234375,-25.292999267578125 -66.52400207519531,-22.905000686645508 -62.861000061035156,-19.510000228881836"/></g><g opacity="1" transform="matrix(1,0,0,1,0,0)"><path stroke-linecap="round" stroke-linejoin="round" fill-opacity="0" class="secondary" stroke="rgb(18,19,49)" stroke-opacity="1" stroke-width="2.45" d=" M-44.393001556396484,35.92100143432617 C-44.393001556396484,35.92100143432617 -44.21799850463867,35.90700149536133 -44.21799850463867,35.90700149536133 C-44.21799850463867,35.90700149536133 -44.21799850463867,3.2739999294281006 -44.21799850463867,3.2739999294281006"/></g><g opacity="1" transform="matrix(1,0,0,1,0,0)"><path stroke-linecap="round" stroke-linejoin="round" fill-opacity="0" class="primary" stroke="rgb(8,168,138)" stroke-opacity="1" stroke-width="2.45" d=" M-50.80099868774414,-22.089000701904297 C-50.80099868774414,-22.089000701904297 -49.92399978637695,-22.072999954223633 -49.92399978637695,-22.072999954223633 C-49.92399978637695,-22.072999954223633 -49.89899826049805,-10.118000030517578 -49.89899826049805,-10.118000030517578"/></g></g><g transform="matrix(5.275599956512451,0,0,5.275599956512451,325.0899963378906,190.02000427246094)" opacity="1" style="display: block;"><g opacity="1" transform="matrix(1,0,0,1,0,0)"><path stroke-linecap="round" stroke-linejoin="round" fill-opacity="0" class="primary" stroke="rgb(8,168,138)" stroke-opacity="1" stroke-width="2.45" d=" M-9.925999641418457,-16.437000274658203 C-9.925999641418457,-16.437000274658203 -9.925999641418457,-22.229000091552734 -9.925999641418457,-22.229000091552734 C-9.925999641418457,-22.229000091552734 -0.9909999966621399,-22.229000091552734 -0.9909999966621399,-22.229000091552734 C-0.9909999966621399,-22.229000091552734 -0.9909999966621399,-8.105999946594238 -0.9909999966621399,-8.105999946594238"/></g></g><g transform="matrix(5.275599956512451,0,0,5.275599956512451,325.0899963378906,190.02000427246094)" opacity="1" style="display: block;"><g opacity="1" transform="matrix(1,0,0,1,0,0)"><path stroke-linecap="round" stroke-linejoin="round" fill-opacity="0" class="primary" stroke="rgb(8,168,138)" stroke-opacity="1" stroke-width="2.45" d=" M-28.242000579833984,35.91699981689453 C-28.242000579833984,35.91699981689453 -28.242000579833984,9.715999603271484 -28.242000579833984,9.715999603271484 C-28.242000579833984,9.715999603271484 -12.387999534606934,9.715999603271484 -12.387999534606934,9.715999603271484 C-12.387999534606934,9.715999603271484 -12.387999534606934,35.91699981689453 -12.387999534606934,35.91699981689453"/></g><g opacity="1" transform="matrix(1,0,0,1,0,0)"><path stroke-linecap="round" stroke-linejoin="round" fill-opacity="0" class="secondary" stroke="rgb(18,19,49)" stroke-opacity="1" stroke-width="2.45" d=" M-51.58100128173828,3.2839999198913574 C-51.58100128173828,3.2839999198913574 -20.315000534057617,-25.29400062561035 -20.315000534057617,-25.29400062561035 C-20.315000534057617,-25.29400062561035 10.51099967956543,3.2839999198913574 10.51099967956543,3.2839999198913574"/></g><g opacity="1" transform="matrix(1,0,0,1,0,0)"><path stroke-linecap="round" stroke-linejoin="round" fill-opacity="0" class="secondary" stroke="rgb(18,19,49)" stroke-opacity="1" stroke-width="2.45" d=" M-45.71200180053711,-1.2940000295639038 C-45.71200180053711,-1.2940000295639038 -45.71200180053711,35.91699981689453 -45.71200180053711,35.91699981689453 C-45.71200180053711,35.91699981689453 4.758999824523926,35.91699981689453 4.758999824523926,35.91699981689453 C4.758999824523926,35.91699981689453 4.75,-1.9930000305175781 4.75,-1.9930000305175781"/></g></g></g></g><clipPath id="__lottie_element_3221"><path d="M0,0 L430,0 L430,430 L0,430z"/></clipPath><mask id="__lottie_element_3220_1" mask-type="alpha"><use xmlns:ns2="http://www.w3.org/1999/xlink" ns2:href="#__lottie_element_3220"/></mask></defs><g clip-path="url(#__lottie_element_2920)"><g clip-path="url(#__lottie_element_3214)" transform="matrix(1,0,0,1,0,0)" opacity="1" style="display: block;"><g mask="url(#__lottie_element_3220_1)" style="display: block;"><g filter="url(#__lottie_element_3219)" transform="matrix(-1.7359691858291626,-1.657230019569397,1.657230019569397,-1.7359691858291626,271.9410095214844,220.4600067138672)" opacity="1"><g class="design" opacity="1" transform="matrix(1,0,0,1,0,0)"><path class="primary" fill="rgb(75,225,236)" fill-opacity="1" d=" M0,-250 C137.97500610351562,-250 250,-137.97500610351562 250,0 C250,137.97500610351562 137.97500610351562,250 0,250 C-137.97500610351562,250 -250,137.97500610351562 -250,0 C-250,-137.97500610351562 -137.97500610351562,-250 0,-250z"/></g><g class="design" opacity="1" transform="matrix(1,0,0,1,113.24199676513672,-118.88400268554688)"><path class="secondary" fill="rgb(203,94,238)" fill-opacity="1" d=" M0,-176.5 C97.47799682617188,-176.5 176.5,-97.47799682617188 176.5,0 C176.5,97.47799682617188 97.47799682617188,176.5 0,176.5 C-43.948001861572266,176.5 -74.39600372314453,142.4429931640625 -105.29000091552734,115.86900329589844 C-142.92100524902344,83.5 -176.5,53.53099822998047 -176.5,0 C-176.5,-97.47799682617188 -97.47799682617188,-176.5 0,-176.5z"/></g></g></g></g><g clip-path="url(#__lottie_element_2922)" transform="matrix(1,0,0,1,0,0)" opacity="1" style="display: none;"><g mask="url(#__lottie_element_2929_1)" style="display: block;"><g filter="url(#__lottie_element_2928)" transform="matrix(-0.1674155443906784,-2.3941538333892822,2.3941538333892822,-0.1674155443906784,271.9410095214844,220.4600067138672)" opacity="1"><g class="design" opacity="1" transform="matrix(1,0,0,1,0,0)"><path class="primary" fill="rgb(75,225,236)" fill-opacity="1" d=" M0,-250 C137.97500610351562,-250 250,-137.97500610351562 250,0 C250,137.97500610351562 137.97500610351562,250 0,250 C-137.97500610351562,250 -250,137.97500610351562 -250,0 C-250,-137.97500610351562 -137.97500610351562,-250 0,-250z"/></g><g class="design" opacity="1" transform="matrix(1,0,0,1,113.24199676513672,-118.88400268554688)"><path class="secondary" fill="rgb(203,94,238)" fill-opacity="1" d=" M0,-176.5 C97.47799682617188,-176.5 176.5,-97.47799682617188 176.5,0 C176.5,97.47799682617188 97.47799682617188,176.5 0,176.5 C-43.948001861572266,176.5 -74.39600372314453,142.4429931640625 -105.29000091552734,115.86900329589844 C-142.92100524902344,83.5 -176.5,53.53099822998047 -176.5,0 C-176.5,-97.47799682617188 -97.47799682617188,-176.5 0,-176.5z"/></g></g></g></g></g></svg>