<svg width="39" height="39" viewBox="0 0 39 39" fill="none" xmlns="http://www.w3.org/2000/svg">
<g clip-path="url(#clip0_216_91949)">
<rect x="0.583008" y="0.365234" width="37.9792" height="37.9792" rx="18.9896" fill="#3C5A9A"/>
<path d="M19.5726 38.3445C30.0603 38.3445 38.5622 29.8425 38.5622 19.3548C38.5622 8.86717 30.0603 0.365234 19.5726 0.365234C9.08495 0.365234 0.583008 8.86717 0.583008 19.3548C0.583008 29.8425 9.08495 38.3445 19.5726 38.3445Z" fill="#3C5A9A"/>
<path d="M25.7476 6.19531H21.5409C19.0445 6.19531 16.2679 7.24525 16.2679 10.8639C16.28 12.1247 16.2679 13.3322 16.2679 14.6912H13.3799V19.2869H16.3572V32.5168H21.8282V19.1996H25.4393L25.766 14.6783H21.734C21.734 14.6783 21.743 12.6671 21.734 12.0831C21.734 10.6531 23.2219 10.735 23.3114 10.735C24.0195 10.735 25.3962 10.737 25.7496 10.735V6.19531H25.7476Z" fill="white"/>
</g>
<defs>
<clipPath id="clip0_216_91949">
<rect x="0.583008" y="0.365234" width="37.9792" height="37.9792" rx="18.9896" fill="white"/>
</clipPath>
</defs>
</svg>
