<svg width="39" height="39" viewBox="0 0 39 39" fill="none" xmlns="http://www.w3.org/2000/svg">
<g clip-path="url(#clip0_216_91952)">
<path d="M10.1823 38.2101C7.92366 38.1074 6.6967 37.7315 5.88061 37.4132C4.79926 36.9922 4.02832 36.491 3.21675 35.6806C2.40517 34.8701 1.90288 34.0992 1.48411 33.0179C1.1658 32.2018 0.789925 30.9748 0.687208 28.7162C0.574333 26.2747 0.551758 25.5421 0.551758 19.3565C0.551758 13.171 0.57659 12.4395 0.68608 9.99577C0.788796 7.73713 1.16693 6.51243 1.48298 5.69409C1.90401 4.61274 2.4063 3.8418 3.21562 3.0291C4.02607 2.21865 4.79701 1.71523 5.87948 1.29646C6.69557 0.978148 7.92253 0.602273 10.1812 0.499556C12.6238 0.387809 13.3575 0.365234 19.5408 0.365234C25.7264 0.365234 26.4578 0.390067 28.9016 0.499556C31.1602 0.602273 32.3849 0.980406 33.2033 1.29646C34.2846 1.71523 35.0555 2.21865 35.8671 3.0291C36.6787 3.83954 37.1787 4.61161 37.5998 5.69296C37.9181 6.50905 38.2939 7.736 38.3967 9.99464C38.5084 12.4384 38.531 13.1698 38.531 19.3554C38.531 25.5387 38.5084 26.2724 38.3967 28.7162C38.2939 30.9748 37.9158 32.2018 37.5998 33.0179C37.1787 34.0992 36.6776 34.8701 35.8671 35.6806C35.0567 36.491 34.2846 36.9922 33.2033 37.4132C32.3872 37.7315 31.1602 38.1074 28.9016 38.2101C26.4601 38.3219 25.7264 38.3445 19.5408 38.3445C13.3575 38.3445 12.6238 38.323 10.1823 38.2101Z" fill="url(#paint0_radial_216_91952)"/>
<path d="M10.1823 38.2101C7.92366 38.1074 6.6967 37.7315 5.88061 37.4132C4.79926 36.9922 4.02832 36.491 3.21675 35.6806C2.40517 34.8701 1.90288 34.0992 1.48411 33.0179C1.1658 32.2018 0.789925 30.9748 0.687208 28.7162C0.574333 26.2747 0.551758 25.5421 0.551758 19.3565C0.551758 13.171 0.57659 12.4395 0.68608 9.99577C0.788796 7.73713 1.16693 6.51243 1.48298 5.69409C1.90401 4.61274 2.4063 3.8418 3.21562 3.0291C4.02607 2.21865 4.79701 1.71523 5.87948 1.29646C6.69557 0.978148 7.92253 0.602273 10.1812 0.499556C12.6238 0.387809 13.3575 0.365234 19.5408 0.365234C25.7264 0.365234 26.4578 0.390067 28.9016 0.499556C31.1602 0.602273 32.3849 0.980406 33.2033 1.29646C34.2846 1.71523 35.0555 2.21865 35.8671 3.0291C36.6787 3.83954 37.1787 4.61161 37.5998 5.69296C37.9181 6.50905 38.2939 7.736 38.3967 9.99464C38.5084 12.4384 38.531 13.1698 38.531 19.3554C38.531 25.5387 38.5084 26.2724 38.3967 28.7162C38.2939 30.9748 37.9158 32.2018 37.5998 33.0179C37.1787 34.0992 36.6776 34.8701 35.8671 35.6806C35.0567 36.491 34.2846 36.9922 33.2033 37.4132C32.3872 37.7315 31.1602 38.1074 28.9016 38.2101C26.4601 38.3219 25.7264 38.3445 19.5408 38.3445C13.3575 38.3445 12.6238 38.323 10.1823 38.2101Z" fill="url(#paint1_radial_216_91952)"/>
<path d="M14.8787 19.4356C14.8787 16.8382 16.9837 14.7321 19.5811 14.7321C22.1785 14.7321 24.2846 16.8382 24.2846 19.4356C24.2846 22.033 22.1785 24.1391 19.5811 24.1391C16.9837 24.1391 14.8787 22.033 14.8787 19.4356ZM12.3361 19.4356C12.3361 23.437 15.5797 26.6806 19.5811 26.6806C23.5826 26.6806 26.8261 23.437 26.8261 19.4356C26.8261 15.4342 23.5826 12.1906 19.5811 12.1906C15.5797 12.1906 12.3362 15.4339 12.3362 19.4356M25.4199 11.9033C25.4198 12.2382 25.519 12.5656 25.7049 12.8441C25.8908 13.1226 26.1552 13.3397 26.4645 13.468C26.7738 13.5963 27.1143 13.6299 27.4427 13.5647C27.7712 13.4995 28.0729 13.3384 28.3098 13.1017C28.5467 12.865 28.7081 12.5634 28.7735 12.235C28.839 11.9066 28.8056 11.5661 28.6776 11.2567C28.5496 10.9473 28.3327 10.6827 28.0543 10.4966C27.7759 10.3104 27.4486 10.211 27.1138 10.2109H27.1131C26.6642 10.2111 26.2338 10.3894 25.9163 10.7068C25.5989 11.0241 25.4203 11.4545 25.4199 11.9033ZM13.8809 30.9205C12.5053 30.8578 11.7576 30.6287 11.2607 30.4351C10.602 30.1786 10.132 29.8732 9.6378 29.3797C9.14363 28.8862 8.83774 28.4167 8.58242 27.7579C8.38872 27.2613 8.15958 26.5134 8.09705 25.1377C8.02865 23.6505 8.01499 23.2037 8.01499 19.4358C8.01499 15.6679 8.02978 15.2224 8.09705 13.7339C8.1597 12.3583 8.39053 11.6119 8.58242 11.1138C8.83887 10.455 9.14431 9.985 9.6378 9.49083C10.1313 8.99666 10.6009 8.69076 11.2607 8.43544C11.7574 8.24175 12.5053 8.01261 13.8809 7.95008C15.3682 7.88167 15.8149 7.86802 19.5811 7.86802C23.3473 7.86802 23.7945 7.88258 25.283 7.9503C26.6586 8.01295 27.4051 8.24378 27.9032 8.43567C28.5619 8.69099 29.032 8.99756 29.5261 9.49105C30.0203 9.98454 30.3251 10.4552 30.5815 11.114C30.7752 11.6106 31.0043 12.3585 31.0669 13.7342C31.1353 15.2226 31.1489 15.6682 31.1489 19.4361C31.1489 23.204 31.1353 23.6495 31.0669 25.138C31.0042 26.5136 30.774 27.2613 30.5815 27.7581C30.3251 28.4169 30.0196 28.8869 29.5261 29.3799C29.0326 29.873 28.5619 30.1789 27.9032 30.4353C27.4066 30.629 26.6586 30.8582 25.283 30.9207C23.7958 30.9891 23.349 31.0028 19.5811 31.0028C15.8132 31.0028 15.3677 30.9891 13.8809 30.9207M13.7641 5.41162C12.262 5.48002 11.2357 5.71819 10.3393 6.06697C9.4116 6.42716 8.6252 6.91038 7.83992 7.69441C7.05465 8.47845 6.57267 9.26496 6.21248 10.1938C5.8637 11.0907 5.62553 12.1165 5.55713 13.6186C5.4876 15.123 5.47168 15.6039 5.47168 19.4356C5.47168 23.2673 5.4876 23.7482 5.55713 25.2526C5.62553 26.7548 5.8637 27.7805 6.21248 28.6774C6.57267 29.6051 7.05476 30.3931 7.83992 31.1768C8.62508 31.9605 9.41047 32.443 10.3393 32.8042C11.2374 33.153 12.262 33.3912 13.7641 33.4596C15.2693 33.528 15.7494 33.545 19.5811 33.545C23.4128 33.545 23.8938 33.5291 25.3982 33.4596C26.9003 33.3912 27.926 33.153 28.8229 32.8042C29.7506 32.443 30.537 31.9608 31.3223 31.1768C32.1076 30.3928 32.5886 29.6051 32.9498 28.6774C33.2985 27.7805 33.5378 26.7547 33.6051 25.2526C33.6735 23.7471 33.6894 23.2673 33.6894 19.4356C33.6894 15.6039 33.6735 15.123 33.6051 13.6186C33.5367 12.1164 33.2985 11.0902 32.9498 10.1938C32.5886 9.26609 32.1063 8.47969 31.3223 7.69441C30.5383 6.90914 29.7506 6.42716 28.824 6.06697C27.926 5.71819 26.9002 5.47889 25.3993 5.41162C23.8947 5.34288 23.4139 5.32617 19.5828 5.32617C15.7517 5.32617 15.2698 5.34209 13.7646 5.41162" fill="white"/>
</g>
<defs>
<radialGradient id="paint0_radial_216_91952" cx="0" cy="0" r="1" gradientUnits="userSpaceOnUse" gradientTransform="translate(3.00973 37.5124) scale(48.2195)">
<stop offset="0.09" stop-color="#FA8F21"/>
<stop offset="0.78" stop-color="#D82D7E"/>
</radialGradient>
<radialGradient id="paint1_radial_216_91952" cx="0" cy="0" r="1" gradientUnits="userSpaceOnUse" gradientTransform="translate(26.8586 36.2929) scale(42.4336)">
<stop offset="0.64" stop-color="#8C3AAA" stop-opacity="0"/>
<stop offset="1" stop-color="#8C3AAA"/>
</radialGradient>
<clipPath id="clip0_216_91952">
<rect width="37.9792" height="37.9792" fill="white" transform="translate(0.551758 0.365234)"/>
</clipPath>
</defs>
</svg>
