<svg width="39" height="39" viewBox="0 0 39 39" fill="none" xmlns="http://www.w3.org/2000/svg">
<path d="M20.1792 29.8239L13.9538 29.7101C11.9382 29.6704 9.91749 29.7496 7.94136 29.3385C4.93521 28.7244 4.72224 25.7133 4.4994 23.1875C4.19233 19.6365 4.31121 16.0211 4.89067 12.4998C5.2178 10.5239 6.50517 9.34495 8.49605 9.21666C15.2167 8.75105 21.9821 8.80623 28.6879 9.02345C29.3961 9.04336 30.1092 9.1522 30.8075 9.27609C34.2546 9.88033 34.3387 13.2927 34.5621 16.1652C34.785 19.0674 34.6909 21.9844 34.265 24.8669C33.9232 27.2534 33.2694 29.2548 30.5103 29.448C27.0533 29.7006 23.6756 29.904 20.2089 29.8393C20.209 29.8239 20.1891 29.8239 20.1792 29.8239ZM16.5193 23.7818C19.1244 22.286 21.6799 20.8152 24.2701 19.3294C21.6601 17.8337 19.1095 16.3628 16.5193 14.8771V23.7818Z" fill="#FF0000"/>
</svg>
